<?xml version="1.0" encoding="UTF-8"?>
<svg id="Calque_2" data-name="Calque 2" xmlns="http://www.w3.org/2000/svg" viewBox="0 0 64.51 64.19">
  <defs>
    <style>
      .cls-1 {
        fill: #bc8331;
      }
    </style>
  </defs>
  <g id="Calque_1-2" data-name="Calque 1">
    <path class="cls-1" d="m32.26,0C14.44,0,0,14.44,0,32.26c0,16.07,11.76,29.4,27.14,31.85-.02-7.66-.04-15.32-.05-22.97h-7.34v-8.88h7.34v-7.13c.02-1.18.24-3.19,1.38-5.32,2.15-3.99,5.99-5.37,6.98-5.7,0,0,6.17-.99,10.21.33v7.46h-4.7s-3.2.17-4.03,3.43v6.94h8.45l-1.38,8.87h-7.18c-.02,7.69-.04,15.38-.06,23.07,15.68-2.19,27.75-15.65,27.75-31.94C64.51,14.44,50.07,0,32.26,0Z"/>
  </g>
</svg>