<?xml version="1.0" encoding="UTF-8"?>
<svg id="Calque_2" data-name="Calque 2" xmlns="http://www.w3.org/2000/svg" viewBox="0 0 64.51 64.51">
  <defs>
    <style>
      .cls-1 {
        fill: #bc8331;
      }
    </style>
  </defs>
  <g id="Calque_1-2" data-name="Calque 1">
    <g>
      <path class="cls-1" d="m32.26,0C14.44,0,0,14.44,0,32.26s14.44,32.26,32.26,32.26,32.26-14.44,32.26-32.26S50.07,0,32.26,0Zm20.54,40.13c0,7.05-5.77,12.83-12.83,12.83h-15.46c-7.05,0-12.83-5.77-12.83-12.83v-15.46c0-7.05,5.77-12.83,12.83-12.83h15.46c7.05,0,12.83,5.77,12.83,12.83v15.46Z"/>
      <circle class="cls-1" cx="32.26" cy="32.26" r="6.5" transform="translate(-6.55 8.27) rotate(-13.28)"/>
      <path class="cls-1" d="m39.71,16.66h-14.91c-4.47,0-8.13,3.66-8.13,8.13v15.59c0,4.47,3.66,8.13,8.13,8.13h14.91c4.47,0,8.13-3.66,8.13-8.13v-15.59c0-4.47-3.66-8.13-8.13-8.13Zm-7.32,26.27c-5.78,0-10.46-4.68-10.46-10.46s4.68-10.46,10.46-10.46,10.46,4.68,10.46,10.46-4.68,10.46-10.46,10.46Zm10.78-19.65c-1.03,0-1.86-.83-1.86-1.86s.83-1.86,1.86-1.86,1.86.83,1.86,1.86-.83,1.86-1.86,1.86Z"/>
    </g>
  </g>
</svg>