<?xml version="1.0" encoding="UTF-8"?>
<svg id="Calque_2" data-name="Calque 2" xmlns="http://www.w3.org/2000/svg" viewBox="0 0 64.51 64.51">
  <defs>
    <style>
      .cls-1 {
        fill: #bc8331;
      }
    </style>
  </defs>
  <g id="Calque_1-2" data-name="Calque 1">
    <path class="cls-1" d="m32.26,0C14.44,0,0,14.44,0,32.26s14.44,32.26,32.26,32.26,32.26-14.44,32.26-32.26S50.07,0,32.26,0ZM15.85,19.95c.79-.38,1.53-.36,1.72-.36,10.11-.02,20.22-.45,30.34-.45.15,0,.69,0,1.29.25.28.12.5.27.64.38-9.05,5.63-15.59,9.71-16.51,10.37-.14.1-.61.45-1.26.46-.62,0-1.09-.31-1.24-.41-.94-.62-7.13-4.49-15.65-9.83.14-.11.37-.27.68-.42Zm32.18,25.96h-31.57c-1.58,0-2.88-1.13-2.88-2.52l.09-20.14c9.41,5.44,16.19,9.39,17.2,10.09.14.1.66.47,1.36.47.7,0,1.23-.38,1.38-.48,1.01-.71,7.73-4.77,17.01-10.38.09,6.81.18,13.63.27,20.44,0,1.39-1.29,2.52-2.88,2.52Z"/>
  </g>
</svg>