<?xml version="1.0" encoding="UTF-8"?>
<svg id="Calque_2" data-name="Calque 2" xmlns="http://www.w3.org/2000/svg" viewBox="0 0 375 60.93">
  <defs>
    <style>
      .cls-1 {
        fill: #bf1c1c;
      }

      .cls-2 {
        fill: #ad823c;
      }
    </style>
  </defs>
  <g id="Calque_1-2" data-name="Calque 1">
    <g>
      <path class="cls-2" d="m92.35,60.93c.03-1.87.03-13.21-9.51-21.98-8.92-8.2-19.77-8.23-21.9-8.2,2.03.08,12.92.32,21.91-7.76,9.85-8.86,9.57-20.66,9.5-22.41.03,1.96.45,13.98,10.8,22.69,8.38,7.04,17.96,7.46,20.6,7.49-2.1-.02-13.09.06-22.06,8.47-9.31,8.73-9.37,19.8-9.35,21.7Z"/>
      <path class="cls-1" d="m155.59,60.35c.03-1.87.03-13.21-9.51-21.98-8.92-8.2-19.77-8.23-21.9-8.2,2.03.08,12.92.32,21.91-7.76,9.85-8.86,9.57-20.66,9.5-22.41.03,1.96.45,13.98,10.8,22.69,8.38,7.04,17.96,7.46,20.6,7.49-2.1-.02-13.09.06-22.06,8.47-9.31,8.73-9.37,19.8-9.35,21.7Z"/>
      <path class="cls-1" d="m30.79,60.85c.03-1.87.03-13.21-9.32-21.98C12.72,30.68,2.09,30.65,0,30.68c1.99.08,12.67.32,21.48-7.76C31.14,14.06,30.86,2.25,30.79.51c.03,1.96.44,13.98,10.59,22.69,8.21,7.04,17.6,7.46,20.2,7.49-2.06-.02-12.83.06-21.62,8.47-9.13,8.73-9.19,19.8-9.17,21.7Z"/>
      <path class="cls-2" d="m344.16,60.35c.03-1.87.03-13.21-9.34-21.98-8.76-8.2-19.41-8.23-21.5-8.2,1.99.08,12.69.32,21.52-7.76C344.51,13.55,344.23,1.75,344.16,0c.03,1.96.44,13.98,10.61,22.69,8.23,7.04,17.63,7.46,20.23,7.49-2.06-.02-12.86.06-21.66,8.47-9.14,8.73-9.21,19.8-9.18,21.7Z"/>
      <path class="cls-2" d="m219.09,60.51c.03-1.87.03-13.21-9.51-21.98-8.92-8.2-19.77-8.23-21.9-8.2,2.03.08,12.92.32,21.91-7.76,9.85-8.86,9.57-20.66,9.5-22.41.03,1.96.45,13.98,10.8,22.69,8.38,7.04,17.96,7.46,20.6,7.49-2.1-.02-13.09.06-22.06,8.47-9.31,8.73-9.37,19.8-9.35,21.7Z"/>
      <path class="cls-1" d="m282.59,60.51c.03-1.87.03-13.21-9.51-21.98-8.92-8.2-19.77-8.23-21.9-8.2,2.03.08,12.92.32,21.91-7.76,9.85-8.86,9.57-20.66,9.5-22.41.03,1.96.45,13.98,10.8,22.69,8.38,7.04,17.96,7.46,20.6,7.49-2.1-.02-13.09.06-22.06,8.47-9.31,8.73-9.37,19.8-9.35,21.7Z"/>
    </g>
  </g>
</svg>